<svg xmlns="http://www.w3.org/2000/svg" version="1.1" xmlns:xlink="http://www.w3.org/1999/xlink" width="512" height="512" x="0" y="0" viewBox="0 0 64 64" style="enable-background:new 0 0 512 512" xml:space="preserve"><g><path d="M28.407 46.967c-1.353 0-2.453-1.098-2.453-2.451s1.1-2.452 2.453-2.452c1.353 0 2.453 1.099 2.453 2.452s-1.1 2.451-2.453 2.451zm0-2.838a.388.388 0 0 0-.388.387c0 .427.776.427.776 0a.388.388 0 0 0-.388-.387zm9.22 2.838c-1.352 0-2.451-1.098-2.451-2.451s1.099-2.452 2.452-2.452 2.451 1.099 2.451 2.452-1.099 2.451-2.451 2.451zm0-2.838a.387.387 0 0 0-.387.387c0 .427.775.427.775 0a.387.387 0 0 0-.387-.387zm7.723-20.705a2.385 2.385 0 0 0-1.906-.939H19.988l-.61-2.285a2.657 2.657 0 0 0-2.565-1.97h-1.539a1.032 1.032 0 1 0 0 2.064h1.539c.267 0 .5.18.57.439l4.931 18.436a3.097 3.097 0 0 0 2.988 2.294h16.55a1.032 1.032 0 1 0 0-2.065h-16.55c-.465 0-.874-.314-.994-.762l-.376-1.407H39.47a4.144 4.144 0 0 0 3.997-3.069l2.3-8.653a2.39 2.39 0 0 0-.417-2.083zm-1.637 1.258c.038.05.096.153.058.295l-1.023 3.848h-3.626l.575-4.275h3.747c.146 0 .23.082.269.132zm-6.673 4.143h-3.794V24.55h4.37zm-5.858-4.275v4.275h-3.79l-.58-4.275zm-6.453 0 .579 4.275h-3.619l-1.145-4.275zm.859 6.34.579 4.274h-2.78l-1.145-4.274zm2.084 0h3.51v4.274H28.25zm5.574 4.274V30.89h3.516l-.576 4.274zm6.224 0H38.27l.575-4.274h3.355l-.728 2.738a2.073 2.073 0 0 1-2 1.536zM17.484 6.982a.967.967 0 0 0-.967-.967H5.897a.967.967 0 1 0 0 1.934h10.62a.967.967 0 0 0 .967-.967zm29.164 0a1.032 1.032 0 1 1-2.064 0 1.032 1.032 0 0 1 2.064 0zm3.227-1.032a1.032 1.032 0 1 0 0 2.065 1.032 1.032 0 0 0 0-2.065zm4.259 0a1.032 1.032 0 1 0 0 2.065 1.032 1.032 0 0 0 0-2.065zm9.11 45.11-3.166-2.669c.002-.063.012-.126.012-.19V7.871c0-3.1-2.53-5.63-5.63-5.63H5.63c-3.1 0-5.63 2.53-5.63 5.63v40.33c0 3.1 2.53 5.63 5.63 5.63h43.338l.001 3.867c0 .833.468 1.569 1.222 1.922.748.348 1.617.24 2.256-.29l1.934-1.608 1.076 2.313c.333.722.93 1.27 1.676 1.542a2.973 2.973 0 0 0 2.276-.097 2.958 2.958 0 0 0 1.54-1.677 2.948 2.948 0 0 0-.098-2.274l-1.075-2.315 2.474-.442a2.106 2.106 0 0 0 1.676-1.542 2.1 2.1 0 0 0-.682-2.17zM2.06 7.871c0-1.96 1.6-3.56 3.57-3.56h48.83c1.97 0 3.57 1.6 3.57 3.56v1.78H2.06zm46.905 35.711.002 8.18H5.63a3.57 3.57 0 0 1-3.57-3.56v-36.48h55.97v34.943l-5.579-4.704a2.101 2.101 0 0 0-2.26-.3 2.097 2.097 0 0 0-1.226 1.921zm12.92 9.158-3.792.677a1.032 1.032 0 0 0-.754 1.452l1.64 3.533a.9.9 0 0 1 .031.693.92.92 0 0 1-.47.514.91.91 0 0 1-.697.029.897.897 0 0 1-.515-.472l-1.64-3.529a1.034 1.034 0 0 0-.936-.596c-.238 0-.472.082-.66.238l-3.058 2.419.086-14.16 10.793 9.1z" fill="#000000" opacity="1" data-original="#000000"/></g></svg>