<svg xmlns="http://www.w3.org/2000/svg" version="1.1" xmlns:xlink="http://www.w3.org/1999/xlink" width="512" height="512" x="0" y="0" viewBox="0 0 100 100" style="enable-background:new 0 0 512 512" xml:space="preserve"><g><path d="M78.37 46.18v.03c.15.42.13.86-.05 1.26-.2.4-.52.72-.96.87-.01 0-.03.01-.04.01-.17.06-.34.09-.53.09-.71 0-1.33-.44-1.58-1.09-.31-.86.1-1.79.94-2.13.02-.01.03-.02.05-.02.86-.31 1.85.14 2.17.98zM33.19 16.39H18.07c-.93 0-1.68.75-1.68 1.68s.75 1.68 1.68 1.68H33.2c.93 0 1.68-.75 1.68-1.68s-.76-1.68-1.69-1.68zm-6.72 6.72h-8.4c-.92 0-1.68.76-1.68 1.68s.76 1.68 1.68 1.68h8.4c.92 0 1.68-.76 1.68-1.68s-.75-1.68-1.68-1.68zm6.72 0c-.92 0-1.68.76-1.68 1.68s.76 1.68 1.68 1.68 1.68-.76 1.68-1.68-.75-1.68-1.68-1.68zm0 43.7c.41 0 .77-.15 1.06-.39.37-.31.62-.77.62-1.29 0-.7-.43-1.3-1.05-1.55-.2-.08-.41-.13-.63-.13H18.07c-.93 0-1.68.75-1.68 1.68s.75 1.68 1.68 1.68h7.02zm-15.12-6.73c.92 0 1.68-.76 1.68-1.68s-.76-1.68-1.68-1.68-1.68.76-1.68 1.68.75 1.68 1.68 1.68zm6.72 0h8.4a1.685 1.685 0 0 0 1.68-1.68c0-.85-.64-1.55-1.46-1.66-.07-.01-.14-.02-.22-.02h-8.4a1.692 1.692 0 0 0-1.68 1.68c0 .2.04.4.11.58.24.64.85 1.1 1.57 1.1zm65.54 8.41v13.44c0 2.78-2.26 5.04-5.04 5.04H73.75l-4.29 3.05c-.29.21-.63.31-.97.31-.43 0-.86-.17-1.19-.49l-2.87-2.87h-.98c-1.46 0-2.78-.63-3.7-1.63a30.062 30.062 0 0 1-9.71 1.62h-.08c-6.03 0-11.87-1.78-16.87-5.18a30.13 30.13 0 0 1-7.46-7.17c-.03-.03-.06-.06-.08-.09-.03-.04-.05-.09-.08-.13-.21-.29-.41-.58-.61-.88H14.71c-2.78 0-5.04-2.26-5.04-5.04V55.04c0-2.78 2.26-5.04 5.04-5.04h5.79c.82-3.61 2.31-7.06 4.41-10.18 1.17-1.74 2.51-3.32 3.98-4.75l-2.63-1.87H14.71c-2.78 0-5.04-2.26-5.04-5.04V14.71c0-2.78 2.26-5.04 5.04-5.04h21.85c2.78 0 5.04 2.26 5.04 5.04v12.97c2.69-.77 5.49-1.19 8.37-1.2h.04V14.71c0-2.78 2.26-5.04 5.04-5.04H76.9c2.78 0 5.04 2.26 5.04 5.04v13.44c0 2.78-2.26 5.04-5.04 5.04h-7.88c2.37 1.91 4.43 4.15 6.11 6.67.25.39.35.82.25 1.26-.08.45-.34.82-.71 1.08-.01.01-.03.01-.05.02-.57.34-1.3.31-1.84-.04-2.13 1.38-4.59 2.54-7.31 3.45.61 2.93.99 6.09 1.09 9.4h10.27c-.03-.51-.08-1.03-.14-1.55-.05-.44.07-.87.35-1.23.26-.35.64-.56 1.07-.63.02 0 .04-.01.06-.01.93-.1 1.75.55 1.86 1.46.15 1.2.22 2.42.22 3.63v.01c0 2.28-.25 4.52-.75 6.71h5.79c2.78.02 5.04 2.29 5.04 5.07zm-3.36 0c0-.93-.75-1.68-1.68-1.68H63.44a1.727 1.727 0 0 0-1.39.73c-.19.27-.3.6-.3.95V81.93c0 .27.07.52.18.75.28.55.84.93 1.5.93H65.11c.45 0 .87.18 1.19.49l2.36 2.36 3.57-2.54c.28-.2.63-.31.97-.31h12.08c.93 0 1.68-.75 1.68-1.68V68.49zM40.75 81.98c-1.84-2.22-3.41-5.09-4.62-8.45h-.75l-3.95 2.64c1.09 1.04 2.26 2 3.53 2.86 1.82 1.22 3.77 2.2 5.79 2.95zM22.92 70.17h3.86c.47 0 .93.2 1.25.55l.02.02 2.06 2.27 3.84-2.56c.28-.18.6-.28.93-.28h1.68c.85 0 1.55-.64 1.66-1.47.01-.07.02-.14.02-.21V55.04c0-.81-.58-1.49-1.35-1.65-.11-.02-.22-.03-.33-.03H14.71c-.93 0-1.68.75-1.68 1.68v13.44c0 .93.75 1.68 1.68 1.68h8.21zm13.23-40.34h.41c.64 0 1.18-.36 1.47-.88.13-.24.21-.51.21-.8V14.71c0-.93-.75-1.68-1.68-1.68H14.71c-.93 0-1.68.75-1.68 1.68v13.44c0 .93.75 1.68 1.68 1.68h12.08c.35 0 .69.11.97.31l3.57 2.54 2.36-2.36c.32-.32.74-.49 1.19-.49zm17.21-2.76v1.08c0 .07.01.14.02.2.1.83.8 1.48 1.66 1.48h1.68c.45 0 .87.18 1.19.49l1.03 1.03 1.02 1.02.31.31.72-.51 1.57-1.11 1.29-.92c.1-.07.2-.12.31-.17.21-.09.43-.14.66-.14H76.9c.93 0 1.68-.75 1.68-1.68V14.71c0-.93-.75-1.68-1.68-1.68H55.04c-.93 0-1.68.75-1.68 1.68v11.95zM58.4 77.3v-7.79c-2.16-.38-4.42-.62-6.72-.69v14.56c2.52-.69 4.83-2.87 6.72-6.08zM48.32 58.4H41.6v7.69c2.16-.35 4.41-.56 6.72-.63zm-8.9 14.23c2.11 5.73 5.31 9.77 8.9 10.75V68.82c-2.34.08-4.64.32-6.83.71a5.047 5.047 0 0 1-2.07 3.1zM63.2 58.4H51.68v7.05c2.51.08 4.95.32 7.28.73a5.034 5.034 0 0 1 3.81-2.69c.23-1.64.37-3.35.43-5.09zm-14.88-3.36v-7.05c-3.7-.11-7.25-.59-10.53-1.4-.23 1.12-.43 2.28-.59 3.46 2.47.32 4.39 2.44 4.39 4.99zm0-24.97c-4.09 1.11-7.67 6.2-9.71 13.23 3.03.75 6.32 1.21 9.71 1.32zm3.36 14.55c3.39-.11 6.68-.57 9.71-1.32-1.02-3.49-2.4-6.5-4.05-8.79l-1.32-1.32h-.99c-1.29 0-2.47-.49-3.36-1.29v12.72zm-22.35-5.08c1.75 1.1 3.78 2.04 6.01 2.81 1.28-4.4 3.13-8.12 5.39-10.85-.21.08-.42.15-.63.24-.8.8-1.87 1.33-3.06 1.44-2.92 1.6-5.54 3.75-7.71 6.36zM23.96 50h9.85c.18-1.5.42-2.96.71-4.36-2.67-.89-5.09-2.03-7.19-3.38A26.74 26.74 0 0 0 23.96 50zm42.6 8.4a57.95 57.95 0 0 1-.37 5.04h9.85c.43-1.64.69-3.33.8-5.04zm-4.35-11.82c-3.28.81-6.83 1.29-10.53 1.4v7.05H63.2c-.1-2.95-.44-5.8-.99-8.45zm8.47-7.05a26.554 26.554 0 0 0-5.66-5.11c-.24-.16-.49-.32-.73-.48l-2.32 1.65c1.06 2 1.97 4.26 2.69 6.75 2.24-.76 4.27-1.71 6.02-2.81zm11.25 30.64H66.8c-.73 0-1.35.47-1.58 1.13-.06.17-.1.36-.1.55 0 .93.75 1.68 1.68 1.68H81.93c.93 0 1.68-.75 1.68-1.68s-.75-1.68-1.68-1.68zm-6.72 6.72h-8.4a1.677 1.677 0 0 0-1.64 2.03c.13.6.58 1.08 1.16 1.25.15.05.32.08.48.08h8.4c.93 0 1.68-.75 1.68-1.68s-.75-1.68-1.68-1.68zM58.4 23.11h15.13c.93 0 1.68-.75 1.68-1.68s-.75-1.68-1.68-1.68H58.4c-.93 0-1.68.75-1.68 1.68s.75 1.68 1.68 1.68z" fill="#000000" opacity="1" data-original="#000000"/></g></svg>