<svg xmlns="http://www.w3.org/2000/svg" version="1.1" xmlns:xlink="http://www.w3.org/1999/xlink" width="512" height="512" x="0" y="0" viewBox="0 0 510 510" style="enable-background:new 0 0 512 512" xml:space="preserve" fill-rule="evenodd"><g><path d="M8 419.329V90.671c0-33.477 27.139-60.616 60.616-60.616h372.768c33.477 0 60.616 27.139 60.616 60.616V419.329a60.616 60.616 0 0 1-60.616 60.616H68.616A60.614 60.614 0 0 1 8 419.329zm480-299.465V90.671a46.65 46.65 0 0 0-46.616-46.616H68.616A46.65 46.65 0 0 0 22 90.671v29.193zM364.676 68.619c7.362 0 13.34 5.978 13.34 13.341 0 7.362-5.978 13.34-13.34 13.34-7.363 0-13.341-5.978-13.341-13.34 0-7.363 5.978-13.341 13.341-13.341zm39.928 0c7.363 0 13.341 5.978 13.341 13.341 0 7.362-5.978 13.34-13.341 13.34s-13.34-5.978-13.34-13.34c0-7.363 5.977-13.341 13.34-13.341zm39.929 0c7.362 0 13.34 5.978 13.34 13.341 0 7.362-5.978 13.34-13.34 13.34-7.363 0-13.341-5.978-13.341-13.34 0-7.363 5.978-13.341 13.341-13.341zM22 133.864v285.465a46.615 46.615 0 0 0 46.616 46.616h372.768A46.615 46.615 0 0 0 488 419.329V133.864zm417.242 253.335H327.18c-11.163 0-20.214-9.05-20.214-20.214v-.004c0-11.164 9.051-20.214 20.214-20.214h112.062c11.164 0 20.214 9.05 20.214 20.214v.004c0 11.164-9.05 20.214-20.214 20.214zm-90.297-26.432H327.18a6.215 6.215 0 0 0-6.214 6.214v.004a6.215 6.215 0 0 0 6.214 6.214h21.765zm14 12.432h76.297a6.214 6.214 0 0 0 6.214-6.214v-.004a6.214 6.214 0 0 0-6.214-6.214h-76.297zm-78.896-24.984v36.537a7 7 0 0 1-7 7h-36.537a7 7 0 0 1-7-7v-36.537a7 7 0 0 1 7-7h36.537a7 7 0 0 1 7 7zm-14 7h-22.537v22.537h22.537zM122.814 211.214c44.172 0 80.035 35.862 80.035 80.035 0 44.172-35.863 80.035-80.035 80.035-44.173 0-80.035-35.863-80.035-80.035 0-44.173 35.862-80.035 80.035-80.035zm38.89 133.394c14.675-10.718 24.77-27.341 26.777-46.359h-53.543zm-45.89-119.027c-33.16 3.5-59.035 31.586-59.035 65.668 0 36.445 29.589 66.035 66.035 66.035a65.74 65.74 0 0 0 26.773-5.662l-32.836-56.873a6.961 6.961 0 0 1-.937-3.5zm72.667 58.668c-3.257-30.86-27.808-55.41-58.667-58.668v58.668zm250.761-65.503H327.18c-11.163 0-20.214-9.05-20.214-20.214v-.003c0-11.164 9.051-20.214 20.214-20.214h112.062c11.164 0 20.214 9.05 20.214 20.214v.003c0 11.164-9.05 20.214-20.214 20.214zm-49.031-14h49.031a6.214 6.214 0 0 0 6.214-6.214v-.003a6.214 6.214 0 0 0-6.214-6.214h-49.031zm-14-12.431H327.18a6.215 6.215 0 0 0-6.214 6.214v.004a6.214 6.214 0 0 0 6.214 6.213h49.031zm-92.162 72.173v36.537a7 7 0 0 1-7 7h-36.537a7 7 0 0 1-7-7v-36.537a7 7 0 0 1 7-7h36.537a7 7 0 0 1 7 7zm-14 7h-22.537v22.537h22.537zm169.193 31.485H327.18c-11.163 0-20.214-9.051-20.214-20.214v-.004c0-11.164 9.051-20.214 20.214-20.214h112.062c11.164 0 20.214 9.05 20.214 20.214v.004c0 11.163-9.05 20.214-20.214 20.214zm-22.473-14h22.473a6.215 6.215 0 0 0 6.214-6.214v-.004a6.214 6.214 0 0 0-6.214-6.214h-22.473zm-14-12.432H327.18a6.215 6.215 0 0 0-6.214 6.214v.004a6.215 6.215 0 0 0 6.214 6.214h75.589zm-118.72-95.779v36.536a7 7 0 0 1-7 7h-36.537a7 7 0 0 1-7-7v-36.536a7 7 0 0 1 7-7h36.537a7 7 0 0 1 7 7zm-14 7h-22.537v22.536h22.537z" fill="#000000" opacity="1" data-original="#000000"/></g></svg>